<svg xmlns="http://www.w3.org/2000/svg" width="1000" height="400"><rect width="1000" height="400" x="0" y="0" fill="#FFFFFF" id="backgorund"/><g id="viz"><g transform="translate(0,0)"><g transform="translate(26,20)"><g><path fill="#dafbde" d="M0,347.14285714285717L6.366666666666667,349.2857142857143C12.733333333333334,351.4285714285714,25.46666666666667,355.7142857142857,38.2,357.85714285714283C50.93333333333334,360,63.666666666666664,360,76.39999999999999,357.8571428571429C89.13333333333333,355.7142857142857,101.86666666666667,351.4285714285714,114.59999999999998,351.4285714285714C127.33333333333333,351.4285714285714,140.0666666666667,355.7142857142857,152.8,353.5714285714286C165.53333333333333,351.4285714285714,178.26666666666665,342.85714285714283,191,340.7142857142857C203.73333333333335,338.5714285714286,216.46666666666667,342.8571428571429,229.19999999999996,347.14285714285717C241.9333333333333,351.4285714285714,254.66666666666666,355.7142857142857,267.40000000000003,355.7142857142857C280.1333333333333,355.7142857142857,292.8666666666667,351.4285714285714,305.6,347.14285714285717C318.3333333333333,342.8571428571429,331.06666666666666,338.5714285714286,343.8,336.4285714285714C356.5333333333333,334.2857142857143,369.26666666666665,334.2857142857143,382,338.57142857142856C394.73333333333335,342.85714285714283,407.4666666666667,351.4285714285714,420.20000000000005,355.7142857142857C432.9333333333334,360,445.6666666666667,360,458.40000000000003,360C471.1333333333334,360,483.8666666666666,360,496.6000000000001,360C509.3333333333333,360,522.0666666666666,360,534.8,360C547.5333333333333,360,560.2666666666667,360,573,357.8571428571429C585.7333333333333,355.7142857142857,598.4666666666667,351.4285714285714,611.2,349.2857142857143C623.9333333333334,347.14285714285717,636.6666666666666,347.14285714285717,649.4,347.14285714285717C662.1333333333333,347.14285714285717,674.8666666666667,347.14285714285717,687.6,345C700.3333333333334,342.8571428571429,713.0666666666666,338.5714285714286,725.7999999999998,336.4285714285714C738.5333333333333,334.2857142857143,751.2666666666668,334.2857142857143,757.6333333333333,334.2857142857143L764,334.2857142857143L764,360L757.6333333333333,357.8571428571429C751.2666666666668,355.7142857142857,738.5333333333333,351.4285714285714,725.8000000000001,351.4285714285714C713.0666666666666,351.4285714285714,700.3333333333334,355.7142857142857,687.5999999999999,357.85714285714283C674.8666666666667,360,662.1333333333333,360,649.4,360C636.6666666666666,360,623.9333333333334,360,611.2,360C598.4666666666667,360,585.7333333333333,360,573,360C560.2666666666667,360,547.5333333333333,360,534.8,360C522.0666666666666,360,509.3333333333333,360,496.59999999999997,360C483.8666666666666,360,471.1333333333334,360,458.3999999999999,360C445.6666666666667,360,432.9333333333334,360,420.20000000000005,360C407.4666666666667,360,394.73333333333335,360,382,360C369.26666666666665,360,356.5333333333333,360,343.8,360C331.06666666666666,360,318.3333333333333,360,305.59999999999997,360C292.8666666666667,360,280.1333333333333,360,267.4,360C254.66666666666666,360,241.9333333333333,360,229.19999999999996,357.8571428571429C216.46666666666667,355.7142857142857,203.73333333333335,351.4285714285714,191,351.4285714285714C178.26666666666665,351.4285714285714,165.53333333333333,355.7142857142857,152.8,357.85714285714283C140.0666666666667,360,127.33333333333333,360,114.60000000000001,360C101.86666666666667,360,89.13333333333333,360,76.4,360C63.666666666666664,360,50.93333333333334,360,38.2,360C25.46666666666667,360,12.733333333333334,360,6.366666666666667,360L0,360Z"><title>S Corp</title></path><path fill="#81daa1" d="M0,347.14285714285717L6.366666666666667,342.8571428571429C12.733333333333334,338.5714285714286,25.46666666666667,330,38.2,327.85714285714283C50.93333333333334,325.7142857142857,63.666666666666664,330,76.39999999999999,330C89.13333333333333,330,101.86666666666667,325.7142857142857,114.59999999999998,323.5714285714286C127.33333333333333,321.42857142857144,140.0666666666667,321.42857142857144,152.8,308.5714285714286C165.53333333333333,295.7142857142857,178.26666666666665,270,191,261.42857142857144C203.73333333333335,252.8571428571429,216.46666666666667,261.42857142857144,229.19999999999996,265.7142857142857C241.9333333333333,270,254.66666666666666,270,267.40000000000003,267.85714285714283C280.1333333333333,265.7142857142857,292.8666666666667,261.42857142857144,305.6,227.14285714285714C318.3333333333333,192.8571428571429,331.06666666666666,128.57142857142858,343.8,115.71428571428572C356.5333333333333,102.85714285714285,369.26666666666665,141.42857142857142,382,162.85714285714286C394.73333333333335,184.2857142857143,407.4666666666667,188.57142857142858,420.20000000000005,188.57142857142858C432.9333333333334,188.57142857142858,445.6666666666667,184.2857142857143,458.40000000000003,182.14285714285714C471.1333333333334,180,483.8666666666666,180,496.6000000000001,173.57142857142858C509.3333333333333,167.14285714285714,522.0666666666666,154.2857142857143,534.8,154.2857142857143C547.5333333333333,154.2857142857143,560.2666666666667,167.14285714285714,573,167.14285714285714C585.7333333333333,167.14285714285714,598.4666666666667,154.2857142857143,611.2,150.00000000000003C623.9333333333334,145.71428571428575,636.6666666666666,150.00000000000003,649.4,126.42857142857144C662.1333333333333,102.85714285714288,674.8666666666667,51.42857142857144,687.6,25.71428571428572C700.3333333333334,0,713.0666666666666,0,725.7999999999998,25.71428571428572C738.5333333333333,51.42857142857144,751.2666666666668,102.85714285714288,757.6333333333333,128.57142857142858L764,154.2857142857143L764,231.42857142857142L757.6333333333333,231.42857142857142C751.2666666666668,231.42857142857142,738.5333333333333,231.42857142857142,725.8000000000001,214.2857142857143C713.0666666666666,197.1428571428571,700.3333333333334,162.85714285714286,687.5999999999999,167.14285714285714C674.8666666666667,171.42857142857142,662.1333333333333,214.2857142857143,649.4,237.8571428571429C636.6666666666666,261.42857142857144,623.9333333333334,265.7142857142857,611.2,263.57142857142856C598.4666666666667,261.42857142857144,585.7333333333333,252.8571428571429,573,255.00000000000003C560.2666666666667,257.14285714285717,547.5333333333333,270,534.8,276.4285714285714C522.0666666666666,282.85714285714283,509.3333333333333,282.85714285714283,496.59999999999997,272.14285714285717C483.8666666666666,261.4285714285714,471.1333333333334,240,458.3999999999999,231.42857142857142C445.6666666666667,222.85714285714286,432.9333333333334,227.14285714285714,420.20000000000005,227.14285714285714C407.4666666666667,227.14285714285714,394.73333333333335,222.85714285714286,382,214.2857142857143C369.26666666666665,205.7142857142857,356.5333333333333,192.85714285714286,343.8,210C331.06666666666666,227.14285714285714,318.3333333333333,274.2857142857143,305.59999999999997,297.8571428571429C292.8666666666667,321.42857142857144,280.1333333333333,321.42857142857144,267.4,319.28571428571433C254.66666666666666,317.14285714285717,241.9333333333333,312.8571428571429,229.19999999999996,302.14285714285717C216.46666666666667,291.4285714285715,203.73333333333335,274.2857142857143,191,280.7142857142857C178.26666666666665,287.14285714285717,165.53333333333333,317.14285714285717,152.8,327.8571428571429C140.0666666666667,338.5714285714286,127.33333333333333,330,114.60000000000001,327.85714285714283C101.86666666666667,325.7142857142857,89.13333333333333,330,76.4,334.2857142857143C63.666666666666664,338.5714285714286,50.93333333333334,342.8571428571429,38.2,345C25.46666666666667,347.14285714285717,12.733333333333334,347.14285714285717,6.366666666666667,347.14285714285717L0,347.14285714285717Z"><title>LLC</title></path><path fill="#a0e3b9" d="M0,347.14285714285717L6.366666666666667,347.14285714285717C12.733333333333334,347.14285714285717,25.46666666666667,347.14285714285717,38.2,345C50.93333333333334,342.8571428571429,63.666666666666664,338.5714285714286,76.39999999999999,334.2857142857143C89.13333333333333,330,101.86666666666667,325.7142857142857,114.59999999999998,327.85714285714283C127.33333333333333,330,140.0666666666667,338.5714285714286,152.8,327.85714285714283C165.53333333333333,317.14285714285717,178.26666666666665,287.14285714285717,191,280.7142857142857C203.73333333333335,274.2857142857143,216.46666666666667,291.4285714285715,229.19999999999996,302.14285714285717C241.9333333333333,312.8571428571429,254.66666666666666,317.14285714285717,267.40000000000003,319.2857142857143C280.1333333333333,321.42857142857144,292.8666666666667,321.42857142857144,305.6,297.8571428571429C318.3333333333333,274.2857142857143,331.06666666666666,227.14285714285714,343.8,210.00000000000003C356.5333333333333,192.85714285714286,369.26666666666665,205.7142857142857,382,214.28571428571425C394.73333333333335,222.85714285714286,407.4666666666667,227.14285714285714,420.20000000000005,227.14285714285714C432.9333333333334,227.14285714285714,445.6666666666667,222.85714285714286,458.40000000000003,231.42857142857144C471.1333333333334,240,483.8666666666666,261.4285714285714,496.6000000000001,272.14285714285717C509.3333333333333,282.85714285714283,522.0666666666666,282.85714285714283,534.8,276.4285714285714C547.5333333333333,270,560.2666666666667,257.14285714285717,573,255C585.7333333333333,252.8571428571429,598.4666666666667,261.42857142857144,611.2,263.57142857142856C623.9333333333334,265.7142857142857,636.6666666666666,261.42857142857144,649.4,237.8571428571429C662.1333333333333,214.2857142857143,674.8666666666667,171.42857142857142,687.6,167.14285714285714C700.3333333333334,162.85714285714286,713.0666666666666,197.1428571428571,725.7999999999998,214.28571428571425C738.5333333333333,231.42857142857142,751.2666666666668,231.42857142857142,757.6333333333333,231.42857142857142L764,231.42857142857142L764,257.14285714285717L757.6333333333333,257.14285714285717C751.2666666666668,257.14285714285717,738.5333333333333,257.14285714285717,725.8000000000001,250.71428571428575C713.0666666666666,244.2857142857143,700.3333333333334,231.42857142857144,687.5999999999999,240.00000000000003C674.8666666666667,248.57142857142858,662.1333333333333,278.5714285714286,649.4,293.5714285714286C636.6666666666666,308.5714285714286,623.9333333333334,308.5714285714286,611.2,304.28571428571433C598.4666666666667,300,585.7333333333333,291.4285714285714,573,291.42857142857144C560.2666666666667,291.4285714285714,547.5333333333333,300,534.8,306.4285714285715C522.0666666666666,312.8571428571429,509.3333333333333,317.14285714285717,496.59999999999997,315.00000000000006C483.8666666666666,312.8571428571429,471.1333333333334,304.2857142857143,458.3999999999999,297.85714285714283C445.6666666666667,291.4285714285714,432.9333333333334,287.1428571428571,420.20000000000005,278.57142857142856C407.4666666666667,270,394.73333333333335,257.14285714285717,382,250.7142857142857C369.26666666666665,244.2857142857143,356.5333333333333,244.2857142857143,343.8,259.2857142857143C331.06666666666666,274.2857142857143,318.3333333333333,304.2857142857143,305.59999999999997,323.57142857142856C292.8666666666667,342.85714285714283,280.1333333333333,351.4285714285714,267.4,351.4285714285714C254.66666666666666,351.4285714285714,241.9333333333333,342.85714285714283,229.19999999999996,332.14285714285717C216.46666666666667,321.4285714285714,203.73333333333335,308.5714285714286,191,312.85714285714283C178.26666666666665,317.14285714285717,165.53333333333333,338.5714285714286,152.8,347.14285714285717C140.0666666666667,355.7142857142857,127.33333333333333,351.4285714285714,114.60000000000001,351.4285714285714C101.86666666666667,351.4285714285714,89.13333333333333,355.7142857142857,76.4,357.85714285714283C63.666666666666664,360,50.93333333333334,360,38.2,357.8571428571429C25.46666666666667,355.7142857142857,12.733333333333334,351.4285714285714,6.366666666666667,349.2857142857143L0,347.14285714285717Z"><title>Sole Proprietor/no specific tax status</title></path><path fill="#5603ad" d="M0,347.14285714285717L6.366666666666667,349.2857142857143C12.733333333333334,351.4285714285714,25.46666666666667,355.7142857142857,38.2,357.85714285714283C50.93333333333334,360,63.666666666666664,360,76.39999999999999,357.8571428571429C89.13333333333333,355.7142857142857,101.86666666666667,351.4285714285714,114.59999999999998,351.4285714285714C127.33333333333333,351.4285714285714,140.0666666666667,355.7142857142857,152.8,347.1428571428571C165.53333333333333,338.5714285714286,178.26666666666665,317.14285714285717,191,312.85714285714283C203.73333333333335,308.5714285714286,216.46666666666667,321.4285714285714,229.19999999999996,332.14285714285717C241.9333333333333,342.85714285714283,254.66666666666666,351.4285714285714,267.40000000000003,351.4285714285714C280.1333333333333,351.4285714285714,292.8666666666667,342.85714285714283,305.6,323.57142857142856C318.3333333333333,304.2857142857143,331.06666666666666,274.2857142857143,343.8,259.2857142857143C356.5333333333333,244.2857142857143,369.26666666666665,244.2857142857143,382,250.71428571428575C394.73333333333335,257.14285714285717,407.4666666666667,270,420.20000000000005,278.57142857142856C432.9333333333334,287.1428571428571,445.6666666666667,291.4285714285714,458.40000000000003,297.8571428571429C471.1333333333334,304.2857142857143,483.8666666666666,312.8571428571429,496.6000000000001,315.00000000000006C509.3333333333333,317.14285714285717,522.0666666666666,312.8571428571429,534.8,306.42857142857144C547.5333333333333,300,560.2666666666667,291.4285714285714,573,291.42857142857144C585.7333333333333,291.4285714285714,598.4666666666667,300,611.2,304.28571428571433C623.9333333333334,308.5714285714286,636.6666666666666,308.5714285714286,649.4,293.5714285714286C662.1333333333333,278.5714285714286,674.8666666666667,248.57142857142858,687.6,240C700.3333333333334,231.42857142857144,713.0666666666666,244.2857142857143,725.7999999999998,250.71428571428575C738.5333333333333,257.14285714285717,751.2666666666668,257.14285714285717,757.6333333333333,257.14285714285717L764,257.14285714285717L764,257.14285714285717L757.6333333333333,261.42857142857144C751.2666666666668,265.7142857142857,738.5333333333333,274.2857142857143,725.8000000000001,274.2857142857143C713.0666666666666,274.2857142857143,700.3333333333334,265.7142857142857,687.5999999999999,270.00000000000006C674.8666666666667,274.2857142857143,662.1333333333333,291.4285714285715,649.4,302.14285714285717C636.6666666666666,312.8571428571429,623.9333333333334,317.14285714285717,611.2,323.5714285714286C598.4666666666667,330,585.7333333333333,338.5714285714286,573,345C560.2666666666667,351.4285714285714,547.5333333333333,355.7142857142857,534.8,351.4285714285714C522.0666666666666,347.14285714285717,509.3333333333333,334.2857142857143,496.59999999999997,330C483.8666666666666,325.7142857142857,471.1333333333334,330,458.3999999999999,327.85714285714283C445.6666666666667,325.7142857142857,432.9333333333334,317.14285714285717,420.20000000000005,310.7142857142857C407.4666666666667,304.2857142857143,394.73333333333335,300,382,297.8571428571429C369.26666666666665,295.7142857142857,356.5333333333333,295.7142857142857,343.8,302.14285714285717C331.06666666666666,308.5714285714286,318.3333333333333,321.4285714285714,305.59999999999997,332.14285714285717C292.8666666666667,342.85714285714283,280.1333333333333,351.4285714285714,267.4,353.5714285714286C254.66666666666666,355.7142857142857,241.9333333333333,351.4285714285714,229.19999999999996,345C216.46666666666667,338.5714285714286,203.73333333333335,330,191,332.14285714285717C178.26666666666665,334.2857142857143,165.53333333333333,347.14285714285717,152.8,351.4285714285715C140.0666666666667,355.7142857142857,127.33333333333333,351.4285714285714,114.60000000000001,351.4285714285714C101.86666666666667,351.4285714285714,89.13333333333333,355.7142857142857,76.4,357.85714285714283C63.666666666666664,360,50.93333333333334,360,38.2,357.8571428571429C25.46666666666667,355.7142857142857,12.733333333333334,351.4285714285714,6.366666666666667,349.2857142857143L0,347.14285714285717Z"><title>Nonprofit 501c(3) or Canadian nonprofit</title></path><path fill="#b3e9c7" d="M0,347.14285714285717L6.366666666666667,349.2857142857143C12.733333333333334,351.4285714285714,25.46666666666667,355.7142857142857,38.2,357.85714285714283C50.93333333333334,360,63.666666666666664,360,76.39999999999999,357.8571428571429C89.13333333333333,355.7142857142857,101.86666666666667,351.4285714285714,114.59999999999998,351.4285714285714C127.33333333333333,351.4285714285714,140.0666666666667,355.7142857142857,152.8,351.4285714285714C165.53333333333333,347.14285714285717,178.26666666666665,334.2857142857143,191,332.14285714285717C203.73333333333335,330,216.46666666666667,338.5714285714286,229.19999999999996,345C241.9333333333333,351.4285714285714,254.66666666666666,355.7142857142857,267.40000000000003,353.5714285714286C280.1333333333333,351.4285714285714,292.8666666666667,342.85714285714283,305.6,336.4285714285714C318.3333333333333,330,331.06666666666666,325.7142857142857,343.8,323.5714285714286C356.5333333333333,321.42857142857144,369.26666666666665,321.42857142857144,382,323.5714285714286C394.73333333333335,325.7142857142857,407.4666666666667,330,420.20000000000005,336.4285714285714C432.9333333333334,342.85714285714283,445.6666666666667,351.4285714285714,458.40000000000003,351.4285714285714C471.1333333333334,351.4285714285714,483.8666666666666,342.85714285714283,496.6000000000001,342.85714285714283C509.3333333333333,342.85714285714283,522.0666666666666,351.4285714285714,534.8,355.7142857142857C547.5333333333333,360,560.2666666666667,360,573,357.8571428571429C585.7333333333333,355.7142857142857,598.4666666666667,351.4285714285714,611.2,345C623.9333333333334,338.5714285714286,636.6666666666666,330,649.4,327.85714285714283C662.1333333333333,325.7142857142857,674.8666666666667,330,687.6,327.85714285714283C700.3333333333334,325.7142857142857,713.0666666666666,317.14285714285717,725.7999999999998,312.8571428571429C738.5333333333333,308.5714285714286,751.2666666666668,308.5714285714286,757.6333333333333,308.5714285714286L764,308.5714285714286L764,334.2857142857143L757.6333333333333,334.2857142857143C751.2666666666668,334.2857142857143,738.5333333333333,334.2857142857143,725.8000000000001,336.4285714285714C713.0666666666666,338.5714285714286,700.3333333333334,342.8571428571429,687.5999999999999,345C674.8666666666667,347.14285714285717,662.1333333333333,347.14285714285717,649.4,347.14285714285717C636.6666666666666,347.14285714285717,623.9333333333334,347.14285714285717,611.2,349.2857142857143C598.4666666666667,351.4285714285714,585.7333333333333,355.7142857142857,573,357.85714285714283C560.2666666666667,360,547.5333333333333,360,534.8,360C522.0666666666666,360,509.3333333333333,360,496.59999999999997,360C483.8666666666666,360,471.1333333333334,360,458.3999999999999,360C445.6666666666667,360,432.9333333333334,360,420.20000000000005,355.7142857142857C407.4666666666667,351.4285714285714,394.73333333333335,342.85714285714283,382,338.57142857142856C369.26666666666665,334.2857142857143,356.5333333333333,334.2857142857143,343.8,336.4285714285714C331.06666666666666,338.5714285714286,318.3333333333333,342.8571428571429,305.59999999999997,347.14285714285717C292.8666666666667,351.4285714285714,280.1333333333333,355.7142857142857,267.4,355.7142857142857C254.66666666666666,355.7142857142857,241.9333333333333,351.4285714285714,229.19999999999996,347.14285714285717C216.46666666666667,342.8571428571429,203.73333333333335,338.5714285714286,191,340.7142857142857C178.26666666666665,342.85714285714283,165.53333333333333,351.4285714285714,152.8,353.5714285714286C140.0666666666667,355.7142857142857,127.33333333333333,351.4285714285714,114.60000000000001,351.4285714285714C101.86666666666667,351.4285714285714,89.13333333333333,355.7142857142857,76.4,357.85714285714283C63.666666666666664,360,50.93333333333334,360,38.2,357.8571428571429C25.46666666666667,355.7142857142857,12.733333333333334,351.4285714285714,6.366666666666667,349.2857142857143L0,347.14285714285717Z"><title>For Profit</title></path><path fill="#dafbde" d="M0,360L6.366666666666667,360C12.733333333333334,360,25.46666666666667,360,38.2,360C50.93333333333334,360,63.666666666666664,360,76.39999999999999,360C89.13333333333333,360,101.86666666666667,360,114.59999999999998,360C127.33333333333333,360,140.0666666666667,360,152.8,357.8571428571429C165.53333333333333,355.7142857142857,178.26666666666665,351.4285714285714,191,351.4285714285714C203.73333333333335,351.4285714285714,216.46666666666667,355.7142857142857,229.19999999999996,357.85714285714283C241.9333333333333,360,254.66666666666666,360,267.40000000000003,360C280.1333333333333,360,292.8666666666667,360,305.6,360C318.3333333333333,360,331.06666666666666,360,343.8,360C356.5333333333333,360,369.26666666666665,360,382,360C394.73333333333335,360,407.4666666666667,360,420.20000000000005,360C432.9333333333334,360,445.6666666666667,360,458.40000000000003,360C471.1333333333334,360,483.8666666666666,360,496.6000000000001,360C509.3333333333333,360,522.0666666666666,360,534.8,360C547.5333333333333,360,560.2666666666667,360,573,360C585.7333333333333,360,598.4666666666667,360,611.2,360C623.9333333333334,360,636.6666666666666,360,649.4,360C662.1333333333333,360,674.8666666666667,360,687.6,360C700.3333333333334,360,713.0666666666666,360,725.7999999999998,360C738.5333333333333,360,751.2666666666668,360,757.6333333333333,360L764,360L764,360L757.6333333333333,360C751.2666666666668,360,738.5333333333333,360,725.8000000000001,360C713.0666666666666,360,700.3333333333334,360,687.5999999999999,360C674.8666666666667,360,662.1333333333333,360,649.4,360C636.6666666666666,360,623.9333333333334,360,611.2,360C598.4666666666667,360,585.7333333333333,360,573,360C560.2666666666667,360,547.5333333333333,360,534.8,360C522.0666666666666,360,509.3333333333333,360,496.59999999999997,360C483.8666666666666,360,471.1333333333334,360,458.3999999999999,360C445.6666666666667,360,432.9333333333334,360,420.20000000000005,360C407.4666666666667,360,394.73333333333335,360,382,360C369.26666666666665,360,356.5333333333333,360,343.8,360C331.06666666666666,360,318.3333333333333,360,305.59999999999997,360C292.8666666666667,360,280.1333333333333,360,267.4,360C254.66666666666666,360,241.9333333333333,360,229.19999999999996,360C216.46666666666667,360,203.73333333333335,360,191,360C178.26666666666665,360,165.53333333333333,360,152.8,360C140.0666666666667,360,127.33333333333333,360,114.60000000000001,360C101.86666666666667,360,89.13333333333333,360,76.4,360C63.666666666666664,360,50.93333333333334,360,38.2,360C25.46666666666667,360,12.733333333333334,360,6.366666666666667,360L0,360Z"><title>Partnership</title></path><path fill="#8367c7" d="M0,347.14285714285717L6.366666666666667,349.2857142857143C12.733333333333334,351.4285714285714,25.46666666666667,355.7142857142857,38.2,357.85714285714283C50.93333333333334,360,63.666666666666664,360,76.39999999999999,357.8571428571429C89.13333333333333,355.7142857142857,101.86666666666667,351.4285714285714,114.59999999999998,351.4285714285714C127.33333333333333,351.4285714285714,140.0666666666667,355.7142857142857,152.8,351.4285714285714C165.53333333333333,347.14285714285717,178.26666666666665,334.2857142857143,191,332.14285714285717C203.73333333333335,330,216.46666666666667,338.5714285714286,229.19999999999996,345C241.9333333333333,351.4285714285714,254.66666666666666,355.7142857142857,267.40000000000003,353.5714285714286C280.1333333333333,351.4285714285714,292.8666666666667,342.85714285714283,305.6,332.14285714285717C318.3333333333333,321.4285714285714,331.06666666666666,308.5714285714286,343.8,302.14285714285717C356.5333333333333,295.7142857142857,369.26666666666665,295.7142857142857,382,297.8571428571429C394.73333333333335,300,407.4666666666667,304.2857142857143,420.20000000000005,310.7142857142857C432.9333333333334,317.14285714285717,445.6666666666667,325.7142857142857,458.40000000000003,327.8571428571429C471.1333333333334,330,483.8666666666666,325.7142857142857,496.6000000000001,330C509.3333333333333,334.2857142857143,522.0666666666666,347.14285714285717,534.8,351.4285714285715C547.5333333333333,355.7142857142857,560.2666666666667,351.4285714285714,573,345C585.7333333333333,338.5714285714286,598.4666666666667,330,611.2,323.5714285714286C623.9333333333334,317.14285714285717,636.6666666666666,312.8571428571429,649.4,302.14285714285717C662.1333333333333,291.4285714285715,674.8666666666667,274.2857142857143,687.6,270.00000000000006C700.3333333333334,265.7142857142857,713.0666666666666,274.2857142857143,725.7999999999998,274.2857142857143C738.5333333333333,274.2857142857143,751.2666666666668,265.7142857142857,757.6333333333333,261.42857142857144L764,257.14285714285717L764,308.5714285714286L757.6333333333333,308.5714285714286C751.2666666666668,308.5714285714286,738.5333333333333,308.5714285714286,725.8000000000001,312.8571428571429C713.0666666666666,317.14285714285717,700.3333333333334,325.7142857142857,687.5999999999999,327.8571428571429C674.8666666666667,330,662.1333333333333,325.7142857142857,649.4,327.85714285714283C636.6666666666666,330,623.9333333333334,338.5714285714286,611.2,345C598.4666666666667,351.4285714285714,585.7333333333333,355.7142857142857,573,357.85714285714283C560.2666666666667,360,547.5333333333333,360,534.8,355.7142857142857C522.0666666666666,351.4285714285714,509.3333333333333,342.85714285714283,496.59999999999997,342.85714285714283C483.8666666666666,342.85714285714283,471.1333333333334,351.4285714285714,458.3999999999999,351.4285714285714C445.6666666666667,351.4285714285714,432.9333333333334,342.85714285714283,420.20000000000005,336.4285714285714C407.4666666666667,330,394.73333333333335,325.7142857142857,382,323.5714285714286C369.26666666666665,321.42857142857144,356.5333333333333,321.42857142857144,343.8,323.5714285714286C331.06666666666666,325.7142857142857,318.3333333333333,330,305.59999999999997,336.4285714285714C292.8666666666667,342.85714285714283,280.1333333333333,351.4285714285714,267.4,353.5714285714286C254.66666666666666,355.7142857142857,241.9333333333333,351.4285714285714,229.19999999999996,345C216.46666666666667,338.5714285714286,203.73333333333335,330,191,332.14285714285717C178.26666666666665,334.2857142857143,165.53333333333333,347.14285714285717,152.8,351.4285714285715C140.0666666666667,355.7142857142857,127.33333333333333,351.4285714285714,114.60000000000001,351.4285714285714C101.86666666666667,351.4285714285714,89.13333333333333,355.7142857142857,76.4,357.85714285714283C63.666666666666664,360,50.93333333333334,360,38.2,357.8571428571429C25.46666666666667,355.7142857142857,12.733333333333334,351.4285714285714,6.366666666666667,349.2857142857143L0,347.14285714285717Z"><title>Under umbrella of a 501c(3)</title></path><path fill="#dafbde" d="M0,360L6.366666666666667,360C12.733333333333334,360,25.46666666666667,360,38.2,360C50.93333333333334,360,63.666666666666664,360,76.39999999999999,360C89.13333333333333,360,101.86666666666667,360,114.59999999999998,360C127.33333333333333,360,140.0666666666667,360,152.8,357.8571428571429C165.53333333333333,355.7142857142857,178.26666666666665,351.4285714285714,191,351.4285714285714C203.73333333333335,351.4285714285714,216.46666666666667,355.7142857142857,229.19999999999996,357.85714285714283C241.9333333333333,360,254.66666666666666,360,267.40000000000003,360C280.1333333333333,360,292.8666666666667,360,305.6,360C318.3333333333333,360,331.06666666666666,360,343.8,360C356.5333333333333,360,369.26666666666665,360,382,360C394.73333333333335,360,407.4666666666667,360,420.20000000000005,360C432.9333333333334,360,445.6666666666667,360,458.40000000000003,360C471.1333333333334,360,483.8666666666666,360,496.6000000000001,360C509.3333333333333,360,522.0666666666666,360,534.8,360C547.5333333333333,360,560.2666666666667,360,573,360C585.7333333333333,360,598.4666666666667,360,611.2,360C623.9333333333334,360,636.6666666666666,360,649.4,360C662.1333333333333,360,674.8666666666667,360,687.6,357.8571428571429C700.3333333333334,355.7142857142857,713.0666666666666,351.4285714285714,725.7999999999998,351.4285714285714C738.5333333333333,351.4285714285714,751.2666666666668,355.7142857142857,757.6333333333333,357.85714285714283L764,360L764,360L757.6333333333333,360C751.2666666666668,360,738.5333333333333,360,725.8000000000001,360C713.0666666666666,360,700.3333333333334,360,687.5999999999999,360C674.8666666666667,360,662.1333333333333,360,649.4,360C636.6666666666666,360,623.9333333333334,360,611.2,360C598.4666666666667,360,585.7333333333333,360,573,360C560.2666666666667,360,547.5333333333333,360,534.8,360C522.0666666666666,360,509.3333333333333,360,496.59999999999997,360C483.8666666666666,360,471.1333333333334,360,458.3999999999999,360C445.6666666666667,360,432.9333333333334,360,420.20000000000005,360C407.4666666666667,360,394.73333333333335,360,382,360C369.26666666666665,360,356.5333333333333,360,343.8,360C331.06666666666666,360,318.3333333333333,360,305.59999999999997,360C292.8666666666667,360,280.1333333333333,360,267.4,360C254.66666666666666,360,241.9333333333333,360,229.19999999999996,357.8571428571429C216.46666666666667,355.7142857142857,203.73333333333335,351.4285714285714,191,351.4285714285714C178.26666666666665,351.4285714285714,165.53333333333333,355.7142857142857,152.8,357.85714285714283C140.0666666666667,360,127.33333333333333,360,114.60000000000001,360C101.86666666666667,360,89.13333333333333,360,76.4,360C63.666666666666664,360,50.93333333333334,360,38.2,360C25.46666666666667,360,12.733333333333334,360,6.366666666666667,360L0,360Z"><title>Public-benefit corporation</title></path></g><g id="xAxis" transform="translate(0,360)" fill="none" font-size="10" font-family="sans-serif" text-anchor="middle"><path class="domain" stroke="currentColor" d="M0.5,0.5H764.5"/><g class="tick" opacity="1" transform="translate(0.5,0)"><line stroke="currentColor" y2="6"/><text fill="currentColor" y="9" dy="0.71em">2,000</text></g><g class="tick" opacity="1" transform="translate(76.9,0)"><line stroke="currentColor" y2="6"/><text fill="currentColor" y="9" dy="0.71em">2,002</text></g><g class="tick" opacity="1" transform="translate(153.3,0)"><line stroke="currentColor" y2="6"/><text fill="currentColor" y="9" dy="0.71em">2,004</text></g><g class="tick" opacity="1" transform="translate(229.7,0)"><line stroke="currentColor" y2="6"/><text fill="currentColor" y="9" dy="0.71em">2,006</text></g><g class="tick" opacity="1" transform="translate(306.1,0)"><line stroke="currentColor" y2="6"/><text fill="currentColor" y="9" dy="0.71em">2,008</text></g><g class="tick" opacity="1" transform="translate(382.5,0)"><line stroke="currentColor" y2="6"/><text fill="currentColor" y="9" dy="0.71em">2,010</text></g><g class="tick" opacity="1" transform="translate(458.9,0)"><line stroke="currentColor" y2="6"/><text fill="currentColor" y="9" dy="0.71em">2,012</text></g><g class="tick" opacity="1" transform="translate(535.3,0)"><line stroke="currentColor" y2="6"/><text fill="currentColor" y="9" dy="0.71em">2,014</text></g><g class="tick" opacity="1" transform="translate(611.7,0)"><line stroke="currentColor" y2="6"/><text fill="currentColor" y="9" dy="0.71em">2,016</text></g><g class="tick" opacity="1" transform="translate(688.1,0)"><line stroke="currentColor" y2="6"/><text fill="currentColor" y="9" dy="0.71em">2,018</text></g><g class="tick" opacity="1" transform="translate(764.5,0)"><line stroke="currentColor" y2="6"/><text fill="currentColor" y="9" dy="0.71em">2,020</text></g></g><g id="yAxis" fill="none" font-size="10" font-family="sans-serif" text-anchor="end"><path class="domain" stroke="currentColor" d="M0.5,360.5V0.5"/><g class="tick" opacity="1" transform="translate(0,360.5)"><line stroke="currentColor" x2="-6"/><text fill="currentColor" x="-9" dy="0.32em">0</text></g><g class="tick" opacity="1" transform="translate(0,334.7857142857143)"><line stroke="currentColor" x2="-6"/><text fill="currentColor" x="-9" dy="0.32em">2</text></g><g class="tick" opacity="1" transform="translate(0,309.0714285714286)"><line stroke="currentColor" x2="-6"/><text fill="currentColor" x="-9" dy="0.32em">4</text></g><g class="tick" opacity="1" transform="translate(0,283.35714285714283)"><line stroke="currentColor" x2="-6"/><text fill="currentColor" x="-9" dy="0.32em">6</text></g><g class="tick" opacity="1" transform="translate(0,257.64285714285717)"><line stroke="currentColor" x2="-6"/><text fill="currentColor" x="-9" dy="0.32em">8</text></g><g class="tick" opacity="1" transform="translate(0,231.92857142857142)"><line stroke="currentColor" x2="-6"/><text fill="currentColor" x="-9" dy="0.32em">10</text></g><g class="tick" opacity="1" transform="translate(0,206.2142857142857)"><line stroke="currentColor" x2="-6"/><text fill="currentColor" x="-9" dy="0.32em">12</text></g><g class="tick" opacity="1" transform="translate(0,180.5)"><line stroke="currentColor" x2="-6"/><text fill="currentColor" x="-9" dy="0.32em">14</text></g><g class="tick" opacity="1" transform="translate(0,154.7857142857143)"><line stroke="currentColor" x2="-6"/><text fill="currentColor" x="-9" dy="0.32em">16</text></g><g class="tick" opacity="1" transform="translate(0,129.07142857142856)"><line stroke="currentColor" x2="-6"/><text fill="currentColor" x="-9" dy="0.32em">18</text></g><g class="tick" opacity="1" transform="translate(0,103.35714285714285)"><line stroke="currentColor" x2="-6"/><text fill="currentColor" x="-9" dy="0.32em">20</text></g><g class="tick" opacity="1" transform="translate(0,77.64285714285715)"><line stroke="currentColor" x2="-6"/><text fill="currentColor" x="-9" dy="0.32em">22</text></g><g class="tick" opacity="1" transform="translate(0,51.928571428571445)"><line stroke="currentColor" x2="-6"/><text fill="currentColor" x="-9" dy="0.32em">24</text></g><g class="tick" opacity="1" transform="translate(0,26.2142857142857)"><line stroke="currentColor" x2="-6"/><text fill="currentColor" x="-9" dy="0.32em">26</text></g><g class="tick" opacity="1" transform="translate(0,0.5)"><line stroke="currentColor" x2="-6"/><text fill="currentColor" x="-9" dy="0.32em">28</text></g></g><text y="356" x="764" text-anchor="end" style="font-family: Arial, sans-serif; font-size: 12px; fill: rgb(123, 123, 123); font-weight: bold;">year_founded</text><text x="4" text-anchor="start" dominant-baseline="hanging" style="font-family: Arial, sans-serif; font-size: 12px; fill: rgb(123, 123, 123); font-weight: bold;">count</text><g id="labels"><text x="343.8" y="347.14285714285717" text-anchor="middle" alignment-baseline="middle" style="font-family: Arial, sans-serif; font-size: 10px; fill: black; font-weight: bold;">S Corp</text><text x="725.8" y="115.71428571428571" text-anchor="middle" alignment-baseline="middle" style="font-family: Arial, sans-serif; font-size: 10px; fill: black; font-weight: bold;">LLC</text><text x="687.6" y="173.57142857142856" text-anchor="middle" alignment-baseline="middle" style="font-family: Arial, sans-serif; font-size: 10px; fill: black; font-weight: bold;">Sole Proprietor/no specific tax status</text><text x="573" y="315" text-anchor="middle" alignment-baseline="middle" style="font-family: Arial, sans-serif; font-size: 10px; fill: black; font-weight: bold;">Nonprofit 501c(3) or Canadian nonprofit</text><text x="420.20000000000005" y="347.14285714285717" text-anchor="middle" alignment-baseline="middle" style="font-family: Arial, sans-serif; font-size: 10px; fill: black; font-weight: bold;">For Profit</text><text x="191" y="353.57142857142856" text-anchor="middle" alignment-baseline="middle" style="font-family: Arial, sans-serif; font-size: 10px; fill: black; font-weight: bold;">Partnership</text><text x="687.6" y="295.7142857142857" text-anchor="middle" alignment-baseline="middle" style="font-family: Arial, sans-serif; font-size: 10px; fill: black; font-weight: bold;">Under umbrella of a 501c(3)</text><text x="725.8" y="353.57142857142856" text-anchor="middle" alignment-baseline="middle" style="font-family: Arial, sans-serif; font-size: 10px; fill: black; font-weight: bold;">Public-benefit corporation</text></g></g><text x="4" y="4" style="font-family: Arial, sans-serif; font-size: 12px; fill: black; font-weight: bold; dominant-baseline: hanging;"/></g></g><g id="legend" transform="translate(800,20)"><g transform="translate(5,0)"><g class="legendColor" transform="translate(0,0)"><g class="legendCells" transform="translate(0,16)"><g class="cell" transform="translate(0, 0)"><rect class="swatch" height="15" width="15" style="fill: rgb(179, 233, 199);"/><text class="label" transform="translate( 20, 12.5)" font-family="&quot;Arial&quot;, sans-serif" font-size="10px"><tspan x="0" dy="0em">For Profit</tspan></text></g><g class="cell" transform="translate(0, 21)"><rect class="swatch" height="15" width="15" style="fill: rgb(129, 218, 161);"/><text class="label" transform="translate( 20, 12.5)" font-family="&quot;Arial&quot;, sans-serif" font-size="10px"><tspan x="0" dy="0em">LLC</tspan></text></g><g class="cell" transform="translate(0, 42)"><rect class="swatch" height="15" width="15" style="fill: rgb(86, 3, 173);"/><text class="label" transform="translate( 20, 12.5)" font-family="&quot;Arial&quot;, sans-serif" font-size="10px"><tspan x="0" dy="0em">Nonprofit 501c(3) or</tspan><tspan x="0" dy="1.2em">Canadian nonprofit</tspan></text></g><g class="cell" transform="translate(0, 78.60000038146973)"><rect class="swatch" height="15" width="15" style="fill: rgb(218, 251, 222);"/><text class="label" transform="translate( 20, 12.5)" font-family="&quot;Arial&quot;, sans-serif" font-size="10px"><tspan x="0" dy="0em">Partnership</tspan></text></g><g class="cell" transform="translate(0, 99.60000038146973)"><rect class="swatch" height="15" width="15" style="fill: rgb(218, 251, 222);"/><text class="label" transform="translate( 20, 12.5)" font-family="&quot;Arial&quot;, sans-serif" font-size="10px"><tspan x="0" dy="0em">Public-benefit corporation</tspan></text></g><g class="cell" transform="translate(0, 120.60000038146973)"><rect class="swatch" height="15" width="15" style="fill: rgb(218, 251, 222);"/><text class="label" transform="translate( 20, 12.5)" font-family="&quot;Arial&quot;, sans-serif" font-size="10px"><tspan x="0" dy="0em">S Corp</tspan></text></g><g class="cell" transform="translate(0, 141.60000038146973)"><rect class="swatch" height="15" width="15" style="fill: rgb(160, 227, 185);"/><text class="label" transform="translate( 20, 12.5)" font-family="&quot;Arial&quot;, sans-serif" font-size="10px"><tspan x="0" dy="0em">Sole Proprietor/no specific</tspan><tspan x="0" dy="1.2em">tax status</tspan></text></g><g class="cell" transform="translate(0, 178.20000076293945)"><rect class="swatch" height="15" width="15" style="fill: rgb(131, 103, 199);"/><text class="label" transform="translate( 20, 12.5)" font-family="&quot;Arial&quot;, sans-serif" font-size="10px"><tspan x="0" dy="0em">Under umbrella of a</tspan><tspan x="0" dy="1.2em">501c(3)</tspan></text></g></g><text class="legendTitle" font-family="&quot;Arial&quot;, sans-serif" font-size="12px" font-weight="bold"><tspan x="0" dy="0em">Colors</tspan></text></g></g></g></svg>